<svg width="38" height="36" viewBox="0 0 38 36" fill="none" xmlns="http://www.w3.org/2000/svg">
<g clip-path="url(#clip0_2_133)">
<path d="M13.0563 23.8667C12.5645 23.8667 12.1137 23.7457 11.7038 23.5037C11.294 23.2617 10.9661 22.9357 10.7202 22.5259C10.4743 22.116 10.3513 21.6613 10.3513 21.1617H12.1078C12.1078 21.3334 12.1507 21.4915 12.2366 21.6359C12.3225 21.7803 12.4376 21.8955 12.5821 21.9814C12.7265 22.0672 12.8846 22.1102 13.0563 22.1102C13.2281 22.1102 13.3862 22.0672 13.5306 21.9814C13.675 21.8955 13.7901 21.7803 13.876 21.6359C13.9619 21.4915 14.0048 21.3334 14.0048 21.1617C14.0048 20.9236 13.9385 20.7264 13.8058 20.5703C13.673 20.4103 13.4857 20.2912 13.2437 20.2131C13.0056 20.1351 12.7245 20.096 12.4006 20.096V18.7611C12.8299 18.7611 13.1676 18.6889 13.4135 18.5445C13.6594 18.3961 13.7823 18.1756 13.7823 17.8828C13.7823 17.7423 13.7472 17.6135 13.677 17.4964C13.6106 17.3793 13.5189 17.2856 13.4018 17.2154C13.2886 17.1451 13.1617 17.11 13.0212 17.11C12.8768 17.11 12.7343 17.1451 12.5938 17.2154C12.4533 17.2856 12.3362 17.3793 12.2425 17.4964C12.1527 17.6135 12.1078 17.7423 12.1078 17.8828H10.3513C10.3513 17.5355 10.4216 17.2095 10.5621 16.9051C10.7065 16.5967 10.9017 16.3274 11.1476 16.0971C11.3974 15.8629 11.6804 15.6814 11.9966 15.5526C12.3166 15.4198 12.6504 15.3535 12.9978 15.3535C13.4545 15.3535 13.876 15.4667 14.2625 15.6931C14.6489 15.9195 14.9572 16.2239 15.1875 16.6065C15.4217 16.989 15.5388 17.4144 15.5388 17.8828C15.5388 18.1561 15.4803 18.4391 15.3632 18.7318C15.2461 19.0246 15.0704 19.2334 14.8362 19.3583C15.0392 19.4364 15.209 19.5749 15.3456 19.774C15.4822 19.9692 15.5857 20.1917 15.6559 20.4415C15.7262 20.6874 15.7613 20.9275 15.7613 21.1617C15.7613 21.6574 15.6384 22.1102 15.3925 22.52C15.1505 22.9299 14.8245 23.2578 14.4147 23.5037C14.0048 23.7457 13.552 23.8667 13.0563 23.8667ZM17.4647 23.8667C17.2188 23.8667 17.01 23.7828 16.8382 23.6149C16.6704 23.4432 16.5864 23.2343 16.5864 22.9884C16.5864 22.7464 16.6704 22.5395 16.8382 22.3678C17.01 22.196 17.2188 22.1102 17.4647 22.1102C17.7067 22.1102 17.9136 22.196 18.0853 22.3678C18.2571 22.5395 18.3429 22.7464 18.3429 22.9884C18.3429 23.2343 18.2571 23.4432 18.0853 23.6149C17.9136 23.7828 17.7067 23.8667 17.4647 23.8667ZM22.6171 23.8667C22.1487 23.8667 21.7174 23.7574 21.3231 23.5388C20.9328 23.3163 20.5932 23.0099 20.3044 22.6196C20.0155 22.2292 19.7911 21.7784 19.631 21.267C19.4749 20.7518 19.3968 20.2014 19.3968 19.6159C19.3968 19.0304 19.4749 18.482 19.631 17.9707C19.7911 17.4554 20.0155 17.0026 20.3044 16.6123C20.5932 16.222 20.9328 15.9175 21.3231 15.6989C21.7174 15.4764 22.1487 15.3652 22.6171 15.3652C23.0855 15.3652 23.5149 15.4764 23.9052 15.6989C24.2994 15.9175 24.639 16.222 24.924 16.6123C25.2089 17.0026 25.4295 17.4554 25.5856 17.9707C25.7456 18.482 25.8257 19.0304 25.8257 19.6159C25.8257 20.2014 25.7456 20.7518 25.5856 21.267C25.4295 21.7784 25.2089 22.2292 24.924 22.6196C24.639 23.0099 24.2994 23.3163 23.9052 23.5388C23.5149 23.7574 23.0855 23.8667 22.6171 23.8667ZM22.6171 22.1102C22.9801 22.1102 23.2768 21.9911 23.5071 21.753C23.7413 21.5149 23.913 21.2065 24.0223 20.8279C24.1316 20.4454 24.1863 20.0414 24.1863 19.6159C24.1863 19.167 24.1277 18.7533 24.0106 18.3747C23.8935 17.996 23.7179 17.6935 23.4836 17.4671C23.2534 17.2368 22.9645 17.1217 22.6171 17.1217C22.3439 17.1217 22.1077 17.192 21.9086 17.3325C21.7096 17.4691 21.5456 17.6565 21.4168 17.8946C21.288 18.1288 21.1924 18.3942 21.1299 18.6908C21.0675 18.9875 21.0363 19.2959 21.0363 19.6159C21.0363 20.0375 21.0929 20.4395 21.206 20.8221C21.3192 21.2007 21.4929 21.511 21.7271 21.753C21.9613 21.9911 22.258 22.1102 22.6171 22.1102Z" fill="url(#paint0_linear_2_133)"/>
<path d="M23.1143 0.00811768H14.0995C13.5472 0.00811768 12.9425 0.427435 12.749 0.944688L0.350537 34.0715C0.156944 34.5888 0.447722 35.0081 1.00001 35.0081H10.0148C10.5671 35.0081 11.1718 34.5888 11.3653 34.0715L23.7638 0.944688C23.9574 0.427434 23.6666 0.00811768 23.1143 0.00811768Z" fill="url(#paint1_linear_2_133)"/>
<path fill-rule="evenodd" clip-rule="evenodd" d="M30.6447 35.0081C30.2276 35.0081 29.8544 34.7492 29.7082 34.3586L21.3088 11.9132C21.2242 11.6872 21.2242 11.4383 21.3088 11.2123L23.8713 4.36442C24.1954 3.4984 25.4204 3.4984 25.7445 4.36442L36.7065 33.6576C36.9511 34.3112 36.4678 35.0081 35.7699 35.0081H30.6447Z" fill="url(#paint2_linear_2_133)"/>
<mask id="mask0_2_133" style="mask-type:alpha" maskUnits="userSpaceOnUse" x="0" y="0" width="37" height="36">
<path d="M23.1143 0.00811768H14.0995C13.5472 0.00811768 12.9426 0.427435 12.749 0.944688L0.350568 34.0715C0.156975 34.5888 0.447753 35.0081 1.00004 35.0081H10.0148C10.5671 35.0081 11.1718 34.5888 11.3654 34.0715L23.7638 0.944688C23.9574 0.427434 23.6666 0.00811768 23.1143 0.00811768Z" fill="black"/>
<path fill-rule="evenodd" clip-rule="evenodd" d="M30.6447 35.0081C30.2276 35.0081 29.8543 34.7492 29.7081 34.3586L21.3087 11.9132C21.2242 11.6872 21.2242 11.4383 21.3087 11.2123L23.8713 4.36442C24.1954 3.4984 25.4204 3.4984 25.7445 4.36442L36.7065 33.6576C36.9511 34.3112 36.4678 35.0081 35.7699 35.0081H30.6447Z" fill="black"/>
</mask>
<g mask="url(#mask0_2_133)">
<path d="M13.0563 23.8667C12.5645 23.8667 12.1137 23.7457 11.7038 23.5037C11.294 23.2617 10.9661 22.9357 10.7202 22.5259C10.4743 22.116 10.3513 21.6613 10.3513 21.1617H12.1078C12.1078 21.3334 12.1507 21.4915 12.2366 21.6359C12.3225 21.7803 12.4376 21.8955 12.5821 21.9814C12.7265 22.0672 12.8846 22.1102 13.0563 22.1102C13.2281 22.1102 13.3862 22.0672 13.5306 21.9814C13.675 21.8955 13.7901 21.7803 13.876 21.6359C13.9619 21.4915 14.0048 21.3334 14.0048 21.1617C14.0048 20.9236 13.9385 20.7264 13.8058 20.5703C13.673 20.4103 13.4857 20.2912 13.2437 20.2131C13.0056 20.1351 12.7245 20.096 12.4006 20.096V18.7611C12.8299 18.7611 13.1676 18.6889 13.4135 18.5445C13.6594 18.3961 13.7823 18.1756 13.7823 17.8828C13.7823 17.7423 13.7472 17.6135 13.677 17.4964C13.6106 17.3793 13.5189 17.2856 13.4018 17.2154C13.2886 17.1451 13.1617 17.11 13.0212 17.11C12.8768 17.11 12.7343 17.1451 12.5938 17.2154C12.4533 17.2856 12.3362 17.3793 12.2425 17.4964C12.1527 17.6135 12.1078 17.7423 12.1078 17.8828H10.3513C10.3513 17.5355 10.4216 17.2095 10.5621 16.9051C10.7065 16.5967 10.9017 16.3274 11.1476 16.0971C11.3974 15.8629 11.6804 15.6814 11.9966 15.5526C12.3166 15.4198 12.6504 15.3535 12.9978 15.3535C13.4545 15.3535 13.876 15.4667 14.2625 15.6931C14.6489 15.9195 14.9572 16.2239 15.1875 16.6065C15.4217 16.989 15.5388 17.4144 15.5388 17.8828C15.5388 18.1561 15.4803 18.4391 15.3632 18.7318C15.2461 19.0246 15.0704 19.2334 14.8362 19.3583C15.0392 19.4364 15.209 19.5749 15.3456 19.774C15.4822 19.9692 15.5857 20.1917 15.6559 20.4415C15.7262 20.6874 15.7613 20.9275 15.7613 21.1617C15.7613 21.6574 15.6384 22.1102 15.3925 22.52C15.1505 22.9299 14.8245 23.2578 14.4147 23.5037C14.0048 23.7457 13.552 23.8667 13.0563 23.8667ZM17.4647 23.8667C17.2188 23.8667 17.01 23.7828 16.8382 23.6149C16.6704 23.4432 16.5864 23.2343 16.5864 22.9884C16.5864 22.7464 16.6704 22.5395 16.8382 22.3678C17.01 22.196 17.2188 22.1102 17.4647 22.1102C17.7067 22.1102 17.9136 22.196 18.0853 22.3678C18.2571 22.5395 18.3429 22.7464 18.3429 22.9884C18.3429 23.2343 18.2571 23.4432 18.0853 23.6149C17.9136 23.7828 17.7067 23.8667 17.4647 23.8667ZM22.6171 23.8667C22.1487 23.8667 21.7174 23.7574 21.3231 23.5388C20.9328 23.3163 20.5932 23.0099 20.3044 22.6196C20.0155 22.2292 19.7911 21.7784 19.631 21.267C19.4749 20.7518 19.3968 20.2014 19.3968 19.6159C19.3968 19.0304 19.4749 18.482 19.631 17.9707C19.7911 17.4554 20.0155 17.0026 20.3044 16.6123C20.5932 16.222 20.9328 15.9175 21.3231 15.6989C21.7174 15.4764 22.1487 15.3652 22.6171 15.3652C23.0855 15.3652 23.5149 15.4764 23.9052 15.6989C24.2994 15.9175 24.639 16.222 24.924 16.6123C25.2089 17.0026 25.4295 17.4554 25.5856 17.9707C25.7456 18.482 25.8257 19.0304 25.8257 19.6159C25.8257 20.2014 25.7456 20.7518 25.5856 21.267C25.4295 21.7784 25.2089 22.2292 24.924 22.6196C24.639 23.0099 24.2994 23.3163 23.9052 23.5388C23.5149 23.7574 23.0855 23.8667 22.6171 23.8667ZM22.6171 22.1102C22.9801 22.1102 23.2768 21.9911 23.5071 21.753C23.7413 21.5149 23.913 21.2065 24.0223 20.8279C24.1316 20.4454 24.1863 20.0414 24.1863 19.6159C24.1863 19.167 24.1277 18.7533 24.0106 18.3747C23.8935 17.996 23.7179 17.6935 23.4836 17.4671C23.2534 17.2368 22.9645 17.1217 22.6171 17.1217C22.3439 17.1217 22.1077 17.192 21.9086 17.3325C21.7096 17.4691 21.5456 17.6565 21.4168 17.8946C21.288 18.1288 21.1924 18.3942 21.1299 18.6908C21.0675 18.9875 21.0363 19.2959 21.0363 19.6159C21.0363 20.0375 21.0929 20.4395 21.206 20.8221C21.3192 21.2007 21.4929 21.511 21.7271 21.753C21.9613 21.9911 22.258 22.1102 22.6171 22.1102Z" fill="#1A1A1A"/>
</g>
</g>
<defs>
<linearGradient id="paint0_linear_2_133" x1="11.4283" y1="24.1434" x2="17.7318" y2="11.7383" gradientUnits="userSpaceOnUse">
<stop stop-color="#044BF1"/>
<stop offset="1" stop-color="#17FFC7"/>
</linearGradient>
<linearGradient id="paint1_linear_2_133" x1="3.33118" y1="28.5804" x2="22.8729" y2="25.9271" gradientUnits="userSpaceOnUse">
<stop stop-color="#044BF1"/>
<stop offset="1" stop-color="#17FFC7"/>
</linearGradient>
<linearGradient id="paint2_linear_2_133" x1="22.5498" y1="29.2611" x2="39.5868" y2="15.5621" gradientUnits="userSpaceOnUse">
<stop stop-color="#044BF1"/>
<stop offset="1" stop-color="#17FFC7"/>
</linearGradient>
<clipPath id="clip0_2_133">
<rect width="37.2119" height="35" fill="white" transform="translate(0 0.00811768)"/>
</clipPath>
</defs>
</svg>
